<svg width="17" height="17" viewBox="0 0 17 17" fill="none" xmlns="http://www.w3.org/2000/svg">
<path fill-rule="evenodd" clip-rule="evenodd" d="M8.5 14.5C11.829 14.5 14.5 11.855 14.5 8.527C14.5 5.198 11.829 2.5 8.5 2.5C5.171 2.5 2.5 5.198 2.5 8.527C2.5 11.855 5.171 14.5 8.5 14.5Z" stroke="white" stroke-linecap="round" stroke-linejoin="round"/>
<path d="M8.5 12C10.433 12 12 10.433 12 8.5C12 6.567 10.433 5 8.5 5C6.567 5 5 6.567 5 8.5C5 10.433 6.567 12 8.5 12Z" fill="white"/>
<path d="M0.5 8.5H2.5M14.5 8.5H16.5M8.5 0.5V2.5M8.5 14.5V16.5" stroke="white" stroke-linecap="round" stroke-linejoin="round"/>
</svg>
